<?xml version="1.0" encoding="UTF-8"?><svg id="a" xmlns="http://www.w3.org/2000/svg" viewBox="0 0 865.7 303.54"><defs><style>.b{fill:#fff;}.c{fill:#485156;}.d{fill:#ffcb00;}.e{fill:#53baaa;}.f{fill:#e95166;}</style></defs><path class="e" d="M223.37,227.64H74.61c-7.9,0-15.58-7.68-15.58-15.74V63.14c0-10.89,7.68-18.57,15.58-18.57h148.76c11.04,0,18.72,7.68,18.72,17.15v148.76c0,9.47-7.68,17.15-18.72,17.15"/><path class="b" d="M219.49,113.56v25.43l-45.37,11.99v-5.17h-5.55l6.43-18.13c1.15.23,2.34.34,3.56.28,8.04-.4,14.24-7.23,13.84-15.27-.4-8.04-7.23-14.23-15.28-13.84-8.04.39-14.23,7.23-13.83,15.27.26,5.35,3.38,9.87,7.8,12.19l-6.92,19.5h-8.72v3.54l-36.23-18.4v-12.25h-4.24l8.08-20.75h18.58v-29.73h-29.72v29.73h6.71l-8.08,20.75h-12.61v5.04l-20.99-3.93c0-.23.04-.46.04-.7,0-10.32-8.36-18.68-18.69-18.68s-18.68,8.36-18.68,18.68,8.36,18.69,18.68,18.69c8.66,0,15.93-5.9,18.04-13.9l21.59,4.04v8.5l-30.12,28.52c-2.44-1.86-5.48-2.98-8.79-2.98-8.03,0-14.53,6.51-14.53,14.53s6.51,14.53,14.53,14.53,14.54-6.51,14.54-14.53c0-3.22-1.06-6.19-2.84-8.6l29.49-27.92h9.07l9.52,29.3h-8.48v23.18h7.71l-7.55,20.16c-.96-.19-1.95-.29-2.97-.29-8.37,0-15.16,6.78-15.16,15.16s6.79,15.16,15.16,15.16,15.16-6.78,15.16-15.16c0-5.9-3.37-10.99-8.29-13.5l8.06-21.52h11.06v-23.18h-10.36l-9.52-29.3h5.6v-4.4l36.23,18.4v10.48h9.19l8.8,24.98c-2.99,1.79-4.96,5.08-4.89,8.81.11,5.54,4.7,9.95,10.24,9.84,5.55-.12,9.95-4.7,9.84-10.24-.11-5.55-4.69-9.95-10.24-9.84-.35,0-.7.03-1.04.08l-8.32-23.63h5.08v-9.2l45.37-11.99v15.26h44.97v-44.97h-44.97Z"/><path class="f" d="M69.41,176.51c0,5.73-4.65,10.38-10.38,10.38s-10.38-4.65-10.38-10.38,4.64-10.38,10.38-10.38,10.38,4.65,10.38,10.38"/><path class="d" d="M118.58,227.48c0,6.12-4.96,11.07-11.07,11.07s-11.07-4.95-11.07-11.07,4.96-11.07,11.07-11.07,11.07,4.96,11.07,11.07"/><path class="c" d="M72.83,119.11c0,8.02-6.51,14.53-14.52,14.53s-14.54-6.51-14.54-14.53,6.51-14.53,14.54-14.53,14.52,6.5,14.52,14.53"/><path class="c" d="M627.04,216.99h14.78l-19.34-25.05,18.37-19.91h-14l-17.41,18.69v-18.69h-12.59v44.97h12.59v-11.24l4.75-5.07,12.85,16.32ZM577.41,188.66c0,4.11-2.63,6.55-7.9,6.55h-7.07v-13.17h7.07c5.27,0,7.9,2.44,7.9,6.62M577.54,216.99h13.62l-9.7-14.13c5.59-2.7,8.8-7.58,8.8-14.2,0-10.28-7.71-16.64-19.98-16.64h-20.56v44.97h12.72v-11.95h6.94l8.16,11.95ZM518.63,207.35c-6.81,0-12.14-5.07-12.14-12.85s5.33-12.85,12.14-12.85,12.14,5.08,12.14,12.85-5.33,12.85-12.14,12.85M518.63,217.89c14.39,0,24.99-9.89,24.99-23.38s-10.6-23.38-24.99-23.38-24.99,9.89-24.99,23.38,10.6,23.38,24.99,23.38M480.92,172.02l-9.44,28.97-9.06-28.97h-11.69l-9.51,28.71-9.06-28.71h-13.11l14.58,44.97h13.62l8.99-27.37,8.61,27.37h13.62l14.58-44.97h-12.14ZM390.59,216.99h12.72v-34.88h13.75v-10.09h-40.28v10.09h13.81v34.88ZM351.01,207.16v-8.22h19.98v-9.51h-19.98v-7.58h22.68v-9.83h-35.27v44.97h36.1v-9.83h-23.51ZM317.26,172.02v23.96l-19.85-23.96h-10.47v44.97h12.46v-23.96l19.85,23.96h10.47v-44.97h-12.46Z"/><path class="c" d="M590.75,158.53h14.77l-19.34-25.05,18.37-19.91h-14l-17.41,18.69v-18.69h-12.59v44.97h12.59v-11.24l4.75-5.07,12.85,16.32ZM539.39,113.56v23.96l-19.85-23.96h-10.47v44.97h12.46v-23.96l19.85,23.96h10.47v-44.97h-12.46ZM473.92,140.41l5.78-14.39,5.78,14.39h-11.56ZM492.74,158.53h13.23l-19.91-44.97h-12.53l-19.85,44.97h12.98l3.53-8.74h19.01l3.53,8.74ZM434.2,149.34h-10.66v-9.12h10.66c4.37,0,6.68,1.48,6.68,4.56s-2.31,4.56-6.68,4.56M432.27,122.75c4.24,0,6.42,1.48,6.42,4.3s-2.19,4.37-6.42,4.37h-8.74v-8.67h8.74ZM445.51,135.08c3.85-1.99,6.04-5.46,6.04-9.76,0-6.94-5.78-11.76-17.6-11.76h-23v44.97h24.28c12.08,0,18.5-4.56,18.5-12.33,0-5.46-3.15-9.31-8.22-11.11M379.86,148.89c-6.81,0-12.14-5.08-12.14-12.85s5.33-12.85,12.14-12.85,12.14,5.07,12.14,12.85-5.33,12.85-12.14,12.85M379.86,159.43c14.39,0,24.99-9.89,24.99-23.38s-10.6-23.38-24.99-23.38-24.99,9.89-24.99,23.38,10.6,23.38,24.99,23.38M336.04,158.53h12.72v-44.97h-12.72v44.97ZM310.19,149.34h-10.66v-9.12h10.66c4.37,0,6.68,1.48,6.68,4.56s-2.31,4.56-6.68,4.56M308.26,122.75c4.24,0,6.42,1.48,6.42,4.3s-2.18,4.37-6.42,4.37h-8.74v-8.67h8.74ZM321.5,135.08c3.85-1.99,6.04-5.46,6.04-9.76,0-6.94-5.78-11.76-17.6-11.76h-23v44.97h24.28c12.08,0,18.5-4.56,18.5-12.33,0-5.46-3.15-9.31-8.22-11.11"/><path class="c" d="M567.41,55.05v23.96l-19.85-23.96h-10.47v44.97h12.46v-23.96l19.85,23.96h10.47v-44.97h-12.46ZM501.94,81.9l5.78-14.39,5.78,14.39h-11.56ZM520.76,100.01h13.23l-19.91-44.97h-12.53l-19.85,44.97h12.98l3.53-8.74h19.02l3.53,8.74ZM478.54,100.01l-.13-44.97h-10.47l-15.42,25.95-15.8-25.95h-10.47v44.97h11.76v-23.19l11.5,18.76h5.65l11.56-19.4.13,23.83h11.69ZM406.81,71.68c0,4.11-2.63,6.55-7.9,6.55h-7.07v-13.17h7.07c5.27,0,7.9,2.44,7.9,6.62M406.94,100.01h13.62l-9.7-14.13c5.59-2.7,8.8-7.58,8.8-14.2,0-10.28-7.71-16.64-19.98-16.64h-20.56v44.97h12.72v-11.95h6.94l8.16,11.95ZM348.61,90.19v-8.22h19.98v-9.51h-19.98v-7.58h22.68v-9.83h-35.27v44.97h36.1v-9.83h-23.51ZM317.06,88.9c-2.25,1.03-4.5,1.48-6.87,1.48-7.58,0-12.72-5.27-12.72-12.85s5.14-12.85,12.85-12.85c4.3,0,7.84,1.61,10.92,5.01l8.09-7.32c-4.43-5.33-11.24-8.22-19.66-8.22-14.58,0-25.05,9.7-25.05,23.38s10.47,23.38,24.8,23.38c6.55,0,13.68-1.99,18.89-5.72v-18.63h-11.24v12.33Z"/><path class="c" d="M821.07,257.46l-.02-17.99h-2.11l-7.4,12.64-7.5-12.64h-2.11v17.99h2.47v-13.03l6.5,10.84h1.18l6.5-10.92.03,13.1h2.47ZM788.99,257.66c4.75,0,7.61-2.75,7.61-7.97v-10.23h-2.49v10.12c0,3.98-1.85,5.78-5.09,5.78s-5.06-1.8-5.06-5.78v-10.12h-2.57v10.23c0,5.22,2.88,7.97,7.61,7.97M773.48,239.47v13.41l-10.79-13.41h-2.11v17.99h2.57v-13.41l10.79,13.41h2.11v-17.99h-2.57ZM742.05,243.71c-2.16,0-3.9.8-4.91,2.18v-2.06h-2.36v13.62h2.47v-7.01c0-2.95,1.7-4.52,4.32-4.52,2.34,0,3.67,1.31,3.67,3.98v7.55h2.47v-7.84c0-4.01-2.34-5.91-5.65-5.91M727.73,257.46h2.47v-13.62h-2.47v13.62ZM728.96,241.22c.98,0,1.67-.72,1.67-1.64,0-.87-.72-1.57-1.67-1.57s-1.67.72-1.67,1.62.72,1.59,1.67,1.59M717.63,243.71c-2.08,0-3.78.74-4.8,2.06v-7.37h-2.47v19.07h2.47v-7.01c0-2.95,1.7-4.52,4.32-4.52,2.34,0,3.67,1.31,3.67,3.98v7.55h2.47v-7.84c0-4.01-2.34-5.91-5.65-5.91M706.65,254.89c-.51.41-1.21.64-1.93.64-1.36,0-2.13-.82-2.13-2.29v-7.37h3.91v-2.03h-3.91v-2.98h-2.47v2.98h-2.31v2.03h2.31v7.48c0,2.75,1.57,4.26,4.32,4.26,1.1,0,2.24-.31,2.98-.95l-.77-1.77ZM692.54,257.46h2.47v-13.62h-2.47v13.62ZM693.77,241.22c.98,0,1.67-.72,1.67-1.64,0-.87-.72-1.57-1.67-1.57s-1.67.72-1.67,1.62.72,1.59,1.67,1.59M687.58,243.84l-4.06,10.89-4.03-10.89h-2.08l-4.11,10.84-3.96-10.84h-2.34l5.06,13.62h2.36l3.98-10.33,3.93,10.33h2.36l5.09-13.62h-2.21ZM651.09,245.79c2.39,0,4.11,1.62,4.37,3.91h-8.74c.26-2.31,2-3.91,4.37-3.91M657.82,250.72c0-4.19-2.8-7.01-6.73-7.01s-6.84,2.9-6.84,6.94,2.93,6.96,7.32,6.96c2.26,0,4.14-.77,5.37-2.21l-1.36-1.59c-1,1.1-2.34,1.64-3.93,1.64-2.7,0-4.63-1.59-4.93-3.98h11.05c.03-.23.05-.54.05-.74M637.51,246.12v-2.29h-2.36v13.62h2.47v-6.78c0-2.98,1.65-4.6,4.29-4.6.18,0,.36,0,.57.03v-2.39c-2.39,0-4.09.82-4.96,2.41M628.06,243.84v7.04c0,2.93-1.64,4.52-4.21,4.52-2.34,0-3.67-1.34-3.67-4.01v-7.55h-2.47v7.84c0,4.01,2.34,5.93,5.86,5.93,1.93,0,3.62-.8,4.63-2.21v2.05h2.34v-13.62h-2.47ZM614.54,254.89c-.51.41-1.21.64-1.93.64-1.36,0-2.13-.82-2.13-2.29v-7.37h3.91v-2.03h-3.91v-2.98h-2.47v2.98h-2.31v2.03h2.31v7.48c0,2.75,1.57,4.26,4.32,4.26,1.1,0,2.24-.31,2.98-.95l-.77-1.77ZM598.17,257.61c2.44,0,4.47-1.03,5.55-2.93l-1.87-1.18c-.87,1.34-2.21,1.95-3.7,1.95-2.67,0-4.68-1.85-4.68-4.8s2-4.78,4.68-4.78c1.49,0,2.83.62,3.7,1.95l1.87-1.21c-1.08-1.9-3.11-2.9-5.55-2.9-4.19,0-7.19,2.88-7.19,6.94s3.01,6.96,7.19,6.96M584.93,243.84v7.04c0,2.93-1.65,4.52-4.21,4.52-2.34,0-3.68-1.34-3.68-4.01v-7.55h-2.47v7.84c0,4.01,2.34,5.93,5.86,5.93,1.93,0,3.62-.8,4.62-2.21v2.05h2.34v-13.62h-2.47ZM566.63,246.12v-2.29h-2.36v13.62h2.47v-6.78c0-2.98,1.64-4.6,4.29-4.6.18,0,.36,0,.57.03v-2.39c-2.39,0-4.09.82-4.96,2.41M560.56,254.89c-.51.41-1.21.64-1.93.64-1.36,0-2.13-.82-2.13-2.29v-7.37h3.91v-2.03h-3.91v-2.98h-2.47v2.98h-2.31v2.03h2.31v7.48c0,2.75,1.57,4.26,4.32,4.26,1.1,0,2.23-.31,2.98-.95l-.77-1.77ZM544.02,257.61c3.62,0,5.88-1.57,5.88-4.03,0-5.29-8.63-2.67-8.63-5.88,0-1.08,1.05-1.88,3.21-1.88,1.34,0,2.7.28,3.93,1.08l1.05-1.95c-1.18-.77-3.19-1.23-4.96-1.23-3.49,0-5.68,1.64-5.68,4.09,0,5.42,8.61,2.77,8.61,5.83,0,1.16-.95,1.85-3.24,1.85-1.77,0-3.62-.59-4.78-1.41l-1.03,1.95c1.13.9,3.37,1.59,5.63,1.59M528.92,255.71c-1.88,0-3.01-.85-3.01-2.21,0-1.16.69-2.11,3.14-2.11h3.8v1.9c-.62,1.57-2.08,2.41-3.93,2.41M529.49,243.71c-2.19,0-4.22.62-5.63,1.75l1.03,1.85c1.05-.9,2.7-1.46,4.32-1.46,2.44,0,3.65,1.21,3.65,3.29v.49h-3.91c-4.06,0-5.47,1.8-5.47,3.98,0,2.36,1.95,4.01,5.04,4.01,2.13,0,3.65-.72,4.47-1.95v1.8h2.34v-8.22c0-3.73-2.11-5.52-5.83-5.52M516.18,246.12v-2.29h-2.36v13.62h2.47v-6.78c0-2.98,1.64-4.6,4.29-4.6.18,0,.36,0,.57.03v-2.39c-2.39,0-4.09.82-4.96,2.41M509.45,240.27c.72,0,1.39.26,1.9.64l.74-1.88c-.69-.54-1.72-.8-2.77-.8-2.9,0-4.5,1.75-4.5,4.39v1.21h-2.31v2.03h2.31v11.59h2.47v-11.59h3.91v-2.03h-3.96v-1.18c0-1.57.74-2.39,2.21-2.39M494.36,243.71c-2.16,0-3.91.8-4.91,2.18v-2.06h-2.36v13.62h2.47v-7.01c0-2.95,1.7-4.52,4.32-4.52,2.34,0,3.67,1.31,3.67,3.98v7.55h2.47v-7.84c0-4.01-2.34-5.91-5.65-5.91M480.04,257.46h2.47v-13.62h-2.47v13.62ZM481.27,241.22c.98,0,1.67-.72,1.67-1.64,0-.87-.72-1.57-1.67-1.57s-1.67.72-1.67,1.62.72,1.59,1.67,1.59M461.87,243.71c-2.16,0-3.91.8-4.91,2.18v-2.06h-2.36v13.62h2.47v-7.01c0-2.95,1.7-4.52,4.32-4.52,2.34,0,3.67,1.31,3.67,3.98v7.55h2.47v-7.84c0-4.01-2.34-5.91-5.65-5.91M438.55,250.9l3.88-8.81,3.88,8.81h-7.76ZM449.19,257.46h2.7l-8.17-17.99h-2.54l-8.15,17.99h2.65l1.98-4.5h9.56l1.98,4.5ZM412.26,251.26h12.85v-1.72h-12.85v1.72ZM396.51,245.79c2.39,0,4.11,1.62,4.37,3.91h-8.74c.26-2.31,2-3.91,4.37-3.91M403.24,250.72c0-4.19-2.8-7.01-6.73-7.01s-6.84,2.9-6.84,6.94,2.93,6.96,7.32,6.96c2.26,0,4.14-.77,5.37-2.21l-1.36-1.59c-1,1.1-2.34,1.64-3.93,1.64-2.7,0-4.62-1.59-4.93-3.98h11.05c.02-.23.05-.54.05-.74M379.09,255.45c-2.62,0-4.6-1.9-4.6-4.8s1.98-4.78,4.6-4.78,4.57,1.88,4.57,4.78-1.98,4.8-4.57,4.8M383.64,238.39v7.5c-1.13-1.46-2.83-2.18-4.75-2.18-3.98,0-6.89,2.77-6.89,6.94s2.9,6.96,6.89,6.96c2.01,0,3.75-.77,4.86-2.31v2.16h2.36v-19.07h-2.47ZM367.94,257.61c.92,0,1.7-.74,1.7-1.77s-.77-1.75-1.7-1.75-1.75.72-1.75,1.75.8,1.77,1.75,1.77M359.89,257.46h2.47v-13.62h-2.47v13.62ZM361.12,241.22c.98,0,1.67-.72,1.67-1.64,0-.87-.72-1.57-1.67-1.57s-1.67.72-1.67,1.62.72,1.59,1.67,1.59M351.88,246.12v-2.29h-2.36v13.62h2.47v-6.78c0-2.98,1.64-4.6,4.29-4.6.18,0,.36,0,.57.03v-2.39c-2.39,0-4.08.82-4.96,2.41M339.41,243.71c-2.31,0-4.21.98-5.24,2.52-.9-1.7-2.65-2.52-4.73-2.52s-3.73.77-4.7,2.16v-2.03h-2.36v13.62h2.47v-7.01c0-2.95,1.62-4.52,4.08-4.52,2.24,0,3.52,1.31,3.52,3.98v7.55h2.47v-7.01c0-2.95,1.62-4.52,4.09-4.52,2.24,0,3.52,1.31,3.52,3.98v7.55h2.47v-7.84c0-4.01-2.26-5.91-5.58-5.91M311.67,255.45c-2.6,0-4.57-1.9-4.57-4.8s1.98-4.78,4.57-4.78,4.6,1.88,4.6,4.78-1.98,4.8-4.6,4.8M311.88,243.71c-1.93,0-3.62.72-4.75,2.18v-7.5h-2.47v19.07h2.36v-2.16c1.11,1.54,2.85,2.31,4.86,2.31,3.98,0,6.89-2.8,6.89-6.96s-2.9-6.94-6.89-6.94M293.95,255.45c-2.59,0-4.57-1.9-4.57-4.8s1.98-4.78,4.57-4.78,4.6,1.88,4.6,4.78-1.98,4.8-4.6,4.8M294.15,243.71c-1.93,0-3.62.72-4.75,2.18v-7.5h-2.47v19.07h2.37v-2.16c1.1,1.54,2.85,2.31,4.86,2.31,3.98,0,6.89-2.8,6.89-6.96s-2.9-6.94-6.89-6.94"/></svg>