<?xml version="1.0" encoding="UTF-8" standalone="no"?>
<!-- Generator: Adobe Illustrator 19.2.1, SVG Export Plug-In . SVG Version: 6.00 Build 0)  -->

<svg
   version="1.1"
   id="layer"
   x="0px"
   y="0px"
   viewBox="0 0 652 104"
   xml:space="preserve"
   sodipodi:docname="german-cancer-research-center-dkfz-logo-vector.svg"
   width="652"
   height="104"
   inkscape:version="1.2.1 (9c6d41e410, 2022-07-14)"
   xmlns:inkscape="http://www.inkscape.org/namespaces/inkscape"
   xmlns:sodipodi="http://sodipodi.sourceforge.net/DTD/sodipodi-0.dtd"
   xmlns="http://www.w3.org/2000/svg"
   xmlns:svg="http://www.w3.org/2000/svg"><defs
   id="defs121" /><sodipodi:namedview
   id="namedview119"
   pagecolor="#ffffff"
   bordercolor="#000000"
   borderopacity="0.25"
   inkscape:showpageshadow="2"
   inkscape:pageopacity="0.0"
   inkscape:pagecheckerboard="0"
   inkscape:deskcolor="#d1d1d1"
   showgrid="false"
   inkscape:zoom="1.5751534"
   inkscape:cx="325.68257"
   inkscape:cy="325.68257"
   inkscape:window-width="2560"
   inkscape:window-height="1387"
   inkscape:window-x="2552"
   inkscape:window-y="-8"
   inkscape:window-maximized="1"
   inkscape:current-layer="layer" />
<style
   type="text/css"
   id="style2">
	.st0{fill:#0047B4;}
	.st1{fill-rule:evenodd;clip-rule:evenodd;fill:#0047B4;}
	.st2{fill-rule:evenodd;clip-rule:evenodd;}
</style>
<g
   id="g116"
   transform="translate(0,-274)">
	<polygon
   class="st0"
   points="299.7,358.2 302.5,358.2 302.5,343.6 300.9,343.6 299.7,343.6 "
   id="polygon4" />
	<path
   class="st0"
   d="m 318,343.6 h -2.7 v 4.5 c 0,1.8 0,4.4 0.2,5.9 -0.5,-1.1 -1.1,-2.3 -1.8,-3.4 l -4.1,-7 h -3.7 v 14.6 h 2.7 V 353 c 0,-1.8 0,-4.1 -0.1,-5.3 0.4,1 0.9,2 1.6,3.1 l 4.3,7.4 h 3.6 z"
   id="path6" />
	<polygon
   class="st0"
   points="324.6,343.6 324.6,346 328.4,346 328.4,358.2 331.2,358.2 331.2,346 335,346 335,343.6 "
   id="polygon8" />
	<polygon
   class="st0"
   points="337,343.6 337,358.2 339.8,358.2 339.8,351.8 346,351.8 346,358.2 348.8,358.2 348.8,343.6 346,343.6 346,349.4 339.8,349.4 339.8,343.6 "
   id="polygon10" />
	<polygon
   class="st0"
   points="355.4,349.5 355.4,345.9 360.5,345.9 360.5,343.6 352.6,343.6 352.6,358.2 360.5,358.2 360.5,355.8 355.4,355.8 355.4,351.8 360.3,351.8 360.3,349.5 "
   id="polygon12" />
	<polygon
   class="st0"
   points="402.9,358.2 402.9,355.7 398.2,355.7 398.2,343.6 395.4,343.6 395.4,358.2 "
   id="polygon14" />
	<path
   class="st0"
   d="m 419.6,343.6 h -3.3 l -2.5,7.6 c -0.4,1.1 -0.6,1.9 -0.8,3 v 0 c -0.2,-1 -0.5,-2 -0.8,-3.1 l -2.4,-7.5 h -3.3 l -2.2,14.6 h 2.9 l 0.8,-6.7 c 0.2,-1.3 0.3,-2.4 0.4,-3.7 v 0 c 0.2,1.2 0.5,2.5 0.9,3.7 l 2.2,6.8 h 2.8 l 2.3,-7.3 c 0.4,-1.1 0.6,-2.2 0.8,-3.1 v 0 c 0.1,1 0.2,2.1 0.4,3.5 l 1,7 h 3 z"
   id="path16" />
	<path
   class="st1"
   d="m 449.6,350.9 c 0,3.5 -2,5 -3.9,5 -2.6,0 -3.8,-2 -3.8,-5.1 0,-3.3 1.9,-4.9 3.9,-4.9 2.4,-0.1 3.8,1.7 3.8,5 m 3,-0.2 c 0,-5 -2.8,-7.3 -6.6,-7.3 -3.9,0 -7.1,2.9 -7.1,7.7 0,4.5 2.2,7.4 6.6,7.4 4,-0.1 7.1,-3 7.1,-7.8"
   id="path18" />
	<path
   class="st0"
   d="m 483.4,355.6 h -3.2 c -1.8,0 -2.8,0 -3.2,0 0.3,-0.4 0.5,-0.7 0.7,-1 l 5.6,-8.8 v -2.2 h -9.4 v 2.5 h 3.4 c 1.5,0 2.1,0 2.7,0 -0.4,0.5 -0.7,0.9 -1,1.4 l -5.3,8.6 v 2.2 h 9.7 z"
   id="path20" />
	<path
   class="st1"
   d="m 494.4,353 1.3,-3.7 c 0.3,-0.8 0.5,-1.7 0.7,-2.4 v 0 c 0.2,0.8 0.4,1.5 0.7,2.3 l 1.4,3.8 z m 3.7,-9.4 h -3.2 l -5.1,14.6 h 2.8 l 1,-3 h 5.5 l 1,3 h 3.1 z"
   id="path22" />
	<path
   class="st0"
   d="m 513.7,353.6 c 0,-4.6 -6.1,-3.6 -6.1,-6.2 0,-1 0.8,-1.8 2.4,-1.8 0.9,0 1.8,0.1 2.6,0.4 l 0.1,-2.5 c -0.9,-0.2 -1.8,-0.3 -2.6,-0.3 -3.5,0 -5.6,1.8 -5.6,4.4 0,4.8 6.1,3.5 6.1,6.3 0,1.3 -1.1,1.9 -2.5,1.9 -1.1,0 -2.2,-0.2 -3.1,-0.5 l -0.2,2.6 c 0.9,0.2 2,0.3 3,0.3 3.7,0.2 5.9,-1.8 5.9,-4.6"
   id="path24" />
	<path
   class="st0"
   d="m 552.8,355.2 c -0.8,0.3 -2,0.6 -2.8,0.6 -2.9,0 -4.3,-1.8 -4.3,-5 0,-2.8 1.3,-4.9 4.1,-4.9 1,0 2,0.2 2.9,0.4 l 0.3,-2.6 c -1,-0.3 -2.1,-0.4 -3.1,-0.4 -4.9,0 -7.3,3.3 -7.3,7.9 0,3.6 1.6,7 6.8,7 1.4,0 2.7,-0.3 3.8,-0.7 z"
   id="path26" />
	<path
   d="m 311.6,330.5 c -0.9,0.4 -2.4,0.8 -3.5,0.8 -3.7,0 -5.3,-2.2 -5.3,-6.2 0,-3.6 1.7,-6.1 5.1,-6.1 1.2,0 2.5,0.2 3.7,0.5 l 0.4,-3.2 c -1.2,-0.3 -2.6,-0.5 -3.9,-0.5 -6.1,0 -9.2,4.1 -9.2,9.9 0,4.6 2.1,8.8 8.5,8.8 1.7,0 3.4,-0.3 4.7,-0.8 z"
   id="path28" />
	<path
   d="m 442.1,328.6 c 0,-5.7 -7.7,-4.5 -7.7,-7.8 0,-1.3 1,-2.2 3.1,-2.2 1.1,0 2.2,0.2 3.3,0.5 L 441,316 c -1.1,-0.2 -2.3,-0.3 -3.3,-0.3 -4.4,0 -7,2.3 -7,5.5 0,6 7.7,4.4 7.7,7.9 0,1.7 -1.4,2.4 -3.2,2.4 -1.3,0 -2.8,-0.3 -3.8,-0.6 l -0.2,3.3 c 1.1,0.3 2.4,0.4 3.7,0.4 4.4,-0.1 7.2,-2.6 7.2,-6"
   id="path30" />
	<polygon
   points="506.8,315.9 506.8,334.3 510.3,334.3 510.3,326.3 518.1,326.3 518.1,334.3 521.6,334.3 521.6,315.9 518.1,315.9 518.1,323.3 510.3,323.3 510.3,315.9 "
   id="polygon32" />
	<polygon
   points="578.4,315.9 578.4,318.9 583.1,318.9 583.1,334.3 586.6,334.3 586.6,318.9 591.4,318.9 591.4,315.9 "
   id="polygon34" />
	<path
   d="m 309,287.9 c -6.3,0 -10.3,4.1 -10.3,9.9 0,5.6 3.4,9 9.3,9 2.2,0 4.5,-0.4 6.3,-1.1 V 297 h -3.5 v 6.4 c -0.7,0.2 -1.5,0.3 -2.3,0.3 -3.7,0 -5.8,-2.3 -5.8,-6.2 0,-4.1 2.6,-6.4 6.2,-6.4 1.7,0 3.4,0.4 4.9,0.9 l 0.5,-3.3 c -0.1,0 -3.4,-0.8 -5.3,-0.8"
   id="path36" />
	<polygon
   points="321.7,295.7 321.7,291.2 328.1,291.2 328.1,288.2 318.2,288.2 318.2,306.5 328.1,306.5 328.1,303.5 321.7,303.5 321.7,298.5 327.8,298.5 327.8,295.7 "
   id="polygon38" />
	<path
   class="st2"
   d="m 339.9,293.6 c 0,1.7 -1.3,2.8 -3.4,2.8 -0.6,0 -1,0 -1.3,-0.1 V 291 c 0.4,-0.1 0.9,-0.1 1.4,-0.1 2.3,0.1 3.3,0.9 3.3,2.7 m 0.6,6.8 c -0.5,-0.6 -1,-1.3 -1.5,-2 2.8,-0.4 4.7,-2.4 4.7,-5.1 0,-3.7 -2.6,-5.2 -6.6,-5.2 -2.1,0 -3.8,0 -5.3,0.1 v 18.3 h 3.5 v -7.6 h 0.1 l 5.1,7.6 h 4.4 z"
   id="path40" />
	<path
   d="m 365.6,288.2 h -4.1 l -3.1,9.5 c -0.5,1.4 -0.8,2.4 -1,3.8 h -0.1 c -0.2,-1.3 -0.6,-2.5 -1,-3.9 l -3.1,-9.4 H 349 l -2.8,18.3 h 3.6 l 1,-8.4 c 0.2,-1.6 0.4,-3 0.5,-4.7 h 0.1 c 0.2,1.5 0.7,3.1 1.2,4.6 l 2.8,8.5 h 3.5 l 2.9,-9.2 c 0.5,-1.4 0.8,-2.7 1,-3.9 h 0.1 c 0.1,1.3 0.3,2.6 0.6,4.4 l 1.3,8.7 h 3.7 z"
   id="path42" />
	<path
   class="st2"
   d="m 375.3,300 1.7,-4.7 c 0.4,-1.1 0.6,-2.1 0.9,-3.1 v 0 c 0.2,1 0.5,1.9 0.8,2.9 l 1.7,4.8 h -5.1 z m 4.7,-11.8 h -4 l -6.4,18.3 h 3.6 l 1.3,-3.7 h 6.9 l 1.3,3.7 h 3.9 z"
   id="path44" />
	<path
   d="m 403.8,288.2 h -3.4 v 5.7 c 0,2.3 0.1,5.5 0.2,7.4 -0.7,-1.4 -1.4,-2.9 -2.3,-4.3 l -5.1,-8.7 h -4.6 v 18.3 H 392 V 300 c 0,-2.2 -0.1,-5.1 -0.2,-6.6 0.5,1.2 1.2,2.5 2,3.9 l 5.4,9.3 h 4.6 z"
   id="path46" />
	<path
   class="st1"
   d="M 79.9,358.3 H 46.3 c -0.1,0 -26.3,-1.1 -26.1,-27.1 0.3,-31 40.2,-24.9 40.2,-24.9 v -18.5 h 19.4 v 70.5 z M 60.5,342.9 c 0,0 -21.6,5.8 -21.6,-10.8 0,-17 21.6,-10.9 21.6,-10.9 z"
   id="path48" />
	<path
   class="st0"
   d="m 243.7,345.5 c 0,-7.4 6,-13.4 13.4,-13.4 7.4,0 13.4,6 13.4,13.4 0,7.4 -6,13.4 -13.4,13.4 -7.4,-0.1 -13.4,-6.1 -13.4,-13.4"
   id="path50" />
	<polygon
   class="st0"
   points="239.9,344.7 239.9,358.3 186.6,358.3 211.1,320 188.3,320 188.3,305.8 239.9,305.8 217.1,344.7 "
   id="polygon52" />
	<polygon
   class="st0"
   points="124,358.3 103.4,335.2 103.4,358.3 83.6,358.3 83.6,287.8 103.4,287.8 103.4,322.9 120.2,305.8 145,305.8 123.1,328.2 149.3,358.3 "
   id="polygon54" />
	<path
   class="st0"
   d="m 184.8,305.8 c 0,0 -9,0 -9,0 0,0 0.1,-7.2 9.2,-6.8 v -10.4 c -28.8,-8.2 -29.6,17.2 -29.6,17.2 h -5.5 c 0,0 -13.7,14.2 -13.7,14.2 h 18.7 v 38.3 h 20.3 c 0,0 0,-38.3 0,-38.3 h 9.6 z"
   id="path56" />
	<polygon
   points="370.6,323.4 370.6,318.9 377,318.9 377,315.9 367,315.9 367,334.3 377,334.3 377,331.2 370.6,331.2 370.6,326.3 376.7,326.3 376.7,323.4 "
   id="polygon58" />
	<polygon
   points="421.4,323.4 421.4,318.9 427.9,318.9 427.9,315.9 417.9,315.9 417.9,334.2 427.9,334.2 427.9,331.2 421.4,331.2 421.4,326.3 427.5,326.3 427.5,323.4 "
   id="polygon60" />
	<polygon
   points="448.8,323.4 448.8,318.9 455.2,318.9 455.2,315.9 445.3,315.9 445.3,334.2 455.2,334.2 455.2,331.2 448.8,331.2 448.8,326.3 454.9,326.3 454.9,323.4 "
   id="polygon62" />
	<polygon
   points="550.9,323.4 550.9,318.9 557.3,318.9 557.3,315.9 547.3,315.9 547.3,334.3 557.3,334.3 557.3,331.2 550.9,331.2 550.9,326.3 557,326.3 557,323.4 "
   id="polygon64" />
	<polygon
   points="597.1,323.4 597.1,318.9 603.5,318.9 603.5,315.9 593.6,315.9 593.6,334.3 603.5,334.3 603.5,331.2 597.1,331.2 597.1,326.3 603.2,326.3 603.2,323.4 "
   id="polygon66" />
	<path
   class="st2"
   d="m 388.8,321.3 c 0,1.7 -1.3,2.8 -3.4,2.8 -0.6,0 -1,0 -1.3,-0.1 v -5.3 c 0.4,-0.1 0.9,-0.1 1.4,-0.1 2.2,0.1 3.3,1 3.3,2.7 m 0.5,6.8 c -0.5,-0.6 -1,-1.3 -1.5,-2 2.8,-0.4 4.7,-2.4 4.7,-5.1 0,-3.7 -2.6,-5.2 -6.6,-5.2 -2.1,0 -3.8,0 -5.3,0.1 v 18.3 h 3.5 v -7.6 h 0.1 l 5.1,7.6 h 4.4 z"
   id="path68" />
	<path
   class="st2"
   d="m 410.4,321.3 c 0,1.7 -1.3,2.8 -3.4,2.8 -0.6,0 -1,0 -1.3,-0.1 v -5.3 c 0.4,-0.1 0.9,-0.1 1.4,-0.1 2.2,0.1 3.3,1 3.3,2.7 m 0.5,6.8 c -0.5,-0.6 -1,-1.3 -1.5,-2 2.8,-0.4 4.7,-2.4 4.7,-5.1 0,-3.7 -2.6,-5.2 -6.6,-5.2 -2.1,0 -3.8,0 -5.3,0.1 v 18.3 h 3.5 v -7.6 h 0.1 l 5.1,7.6 h 4.4 z"
   id="path70" />
	<path
   class="st2"
   d="m 484,321.3 c 0,1.7 -1.3,2.8 -3.4,2.8 -0.5,0 -1,0 -1.3,-0.1 v -5.3 c 0.4,-0.1 0.9,-0.1 1.4,-0.1 2.2,0.1 3.3,1 3.3,2.7 m 0.5,6.8 c -0.5,-0.6 -1,-1.3 -1.5,-2 2.8,-0.4 4.7,-2.4 4.7,-5.1 0,-3.7 -2.6,-5.2 -6.6,-5.2 -2.1,0 -3.8,0 -5.3,0.1 v 18.3 h 3.5 v -7.6 h 0.1 l 5.1,7.6 h 4.4 z"
   id="path72" />
	<path
   class="st2"
   d="m 615.3,321.3 c 0,1.7 -1.3,2.8 -3.4,2.8 -0.5,0 -1,0 -1.3,-0.1 v -5.3 c 0.4,-0.1 0.9,-0.1 1.4,-0.1 2.2,0.1 3.3,1 3.3,2.7 m 0.5,6.8 c -0.5,-0.6 -1,-1.3 -1.5,-2 2.8,-0.4 4.7,-2.4 4.7,-5.1 0,-3.7 -2.6,-5.2 -6.6,-5.2 -2.1,0 -3.8,0 -5.3,0.1 v 18.3 h 3.5 v -7.6 h 0.1 l 5.1,7.6 h 4.4 z"
   id="path74" />
	<path
   class="st2"
   d="m 462.5,327.7 1.7,-4.7 c 0.4,-1.1 0.6,-2.1 0.9,-3.1 v 0 c 0.2,1 0.5,1.9 0.8,2.9 l 1.7,4.8 h -5.1 z m 4.6,-11.8 h -4 l -6.4,18.3 h 3.6 l 1.3,-3.7 h 6.9 l 1.3,3.7 h 3.9 z"
   id="path76" />
	<path
   d="M 347.4,315.9 H 344 v 5.7 c 0,2.3 0.1,5.5 0.2,7.4 -0.7,-1.4 -1.4,-2.9 -2.3,-4.3 l -5.1,-8.7 h -4.6 v 18.3 h 3.4 v -6.5 c 0,-2.2 -0.1,-5.1 -0.2,-6.6 0.5,1.2 1.2,2.5 2,3.9 l 5.4,9.3 h 4.6 z"
   id="path78" />
	<path
   d="m 576,315.9 h -3.4 v 5.7 c 0,2.3 0.1,5.5 0.2,7.4 -0.7,-1.4 -1.4,-2.9 -2.3,-4.3 l -5.1,-8.7 h -4.6 v 18.3 h 3.4 v -6.5 c 0,-2.2 -0.1,-5.1 -0.2,-6.6 0.5,1.2 1.2,2.5 2,3.9 l 5.4,9.3 h 4.6 z"
   id="path80" />
	<path
   d="m 363.2,330.5 c -0.9,0.4 -2.4,0.8 -3.5,0.8 -3.7,0 -5.3,-2.2 -5.3,-6.2 0,-3.6 1.7,-6.1 5.1,-6.1 1.2,0 2.5,0.2 3.7,0.5 l 0.4,-3.2 c -1.2,-0.3 -2.6,-0.5 -3.9,-0.5 -6.1,0 -9.2,4.1 -9.2,9.9 0,4.6 2.1,8.8 8.5,8.8 1.7,0 3.4,-0.3 4.7,-0.8 z"
   id="path82" />
	<path
   d="m 503,330.5 c -0.9,0.4 -2.4,0.8 -3.5,0.8 -3.7,0 -5.3,-2.2 -5.3,-6.2 0,-3.6 1.7,-6.1 5.1,-6.1 1.2,0 2.5,0.2 3.7,0.5 l 0.4,-3.2 c -1.2,-0.3 -2.6,-0.5 -3.9,-0.5 -6.1,0 -9.2,4.1 -9.2,9.9 0,4.6 2.1,8.8 8.5,8.8 1.7,0 3.4,-0.3 4.7,-0.8 z"
   id="path84" />
	<path
   d="m 543.5,330.5 c -0.9,0.4 -2.4,0.8 -3.5,0.8 -3.7,0 -5.3,-2.2 -5.3,-6.2 0,-3.6 1.7,-6.1 5.1,-6.1 1.2,0 2.5,0.2 3.7,0.5 l 0.4,-3.2 c -1.2,-0.3 -2.6,-0.5 -3.9,-0.5 -6.1,0 -9.2,4.1 -9.2,9.9 0,4.6 2.1,8.8 8.5,8.8 1.7,0 3.4,-0.3 4.7,-0.8 z"
   id="path86" />
	<path
   class="st2"
   d="m 318.9,327.7 1.7,-4.7 c 0.4,-1.1 0.6,-2.1 0.9,-3.1 v 0 c 0.2,1 0.5,1.9 0.8,2.9 l 1.7,4.8 h -5.1 z m 4.7,-11.8 h -4 l -6.4,18.3 h 3.6 l 1.3,-3.7 h 6.9 l 1.3,3.7 h 3.9 z"
   id="path88" />
	<polygon
   class="st0"
   points="556.1,358.2 558.9,358.2 558.9,343.6 557.3,343.6 556.1,343.6 "
   id="polygon90" />
	<polygon
   class="st0"
   points="585.8,358.2 588.6,358.2 588.6,343.6 587,343.6 585.8,343.6 "
   id="polygon92" />
	<path
   class="st0"
   d="m 619.6,343.6 h -2.7 v 4.5 c 0,1.8 0,4.4 0.2,5.9 -0.5,-1.1 -1.1,-2.3 -1.8,-3.4 l -4.1,-7 h -3.7 v 14.6 h 2.7 V 353 c 0,-1.8 0,-4.1 -0.1,-5.3 0.4,1 0.9,2 1.6,3.1 l 4.3,7.4 h 3.6 z"
   id="path94" />
	<polygon
   class="st0"
   points="461.9,343.6 461.9,346 465.7,346 465.7,358.2 468.5,358.2 468.5,346 472.3,346 472.3,343.6 "
   id="polygon96" />
	<polygon
   class="st0"
   points="573.4,343.6 573.4,346 577.2,346 577.2,358.2 580,358.2 580,346 583.8,346 583.8,343.6 "
   id="polygon98" />
	<polygon
   class="st0"
   points="368.7,343.6 368.7,358.2 371.5,358.2 371.5,351.8 377.7,351.8 377.7,358.2 380.5,358.2 380.5,343.6 377.7,343.6 377.7,349.4 371.5,349.4 371.5,343.6 "
   id="polygon100" />
	<polygon
   class="st0"
   points="424.4,343.6 424.4,358.2 427.2,358.2 427.2,351.8 433.4,351.8 433.4,358.2 436.2,358.2 436.2,343.6 433.4,343.6 433.4,349.4 427.2,349.4 427.2,343.6 "
   id="polygon102" />
	<polygon
   class="st0"
   points="387.1,349.5 387.1,345.9 392.3,345.9 392.3,343.6 384.3,343.6 384.3,358.2 392.3,358.2 392.3,355.8 387.1,355.8 387.1,351.8 392,351.8 392,349.5 "
   id="polygon104" />
	<polygon
   class="st0"
   points="462.8,358.2 462.8,355.7 458,355.7 458,343.6 455.2,343.6 455.2,358.2 "
   id="polygon106" />
	<path
   class="st1"
   d="m 537.6,350.9 c 0,3.5 -2,5 -3.9,5 -2.6,0 -3.8,-2 -3.8,-5.1 0,-3.3 1.9,-4.9 3.9,-4.9 2.5,-0.1 3.8,1.7 3.8,5 m 3.1,-0.2 c 0,-5 -2.8,-7.3 -6.6,-7.3 -3.9,0 -7.1,2.9 -7.1,7.7 0,4.5 2.2,7.4 6.6,7.4 3.9,-0.1 7.1,-3 7.1,-7.8"
   id="path108" />
	<path
   class="st1"
   d="m 601.9,350.9 c 0,3.5 -2,5 -3.9,5 -2.6,0 -3.8,-2 -3.8,-5.1 0,-3.3 1.9,-4.9 3.9,-4.9 2.5,-0.1 3.8,1.7 3.8,5 m 3.1,-0.2 c 0,-5 -2.8,-7.3 -6.6,-7.3 -3.9,0 -7.1,2.9 -7.1,7.7 0,4.5 2.2,7.4 6.6,7.4 3.9,-0.1 7.1,-3 7.1,-7.8"
   id="path110" />
	<path
   class="st1"
   d="m 565.3,353 1.3,-3.7 c 0.3,-0.8 0.5,-1.7 0.7,-2.4 v 0 c 0.2,0.8 0.4,1.5 0.7,2.3 l 1.4,3.8 z m 3.8,-9.4 h -3.2 l -5.1,14.6 h 2.8 l 1,-3 h 5.5 l 1,3 h 3.1 z"
   id="path112" />
	<path
   class="st0"
   d="m 524.9,353.6 c 0,-4.6 -6.1,-3.6 -6.1,-6.2 0,-1 0.8,-1.8 2.4,-1.8 0.9,0 1.8,0.1 2.6,0.4 l 0.1,-2.5 c -0.9,-0.2 -1.8,-0.3 -2.6,-0.3 -3.5,0 -5.6,1.8 -5.6,4.4 0,4.8 6.1,3.5 6.1,6.3 0,1.3 -1.1,1.9 -2.5,1.9 -1.1,0 -2.2,-0.2 -3.1,-0.5 l -0.2,2.6 c 0.9,0.2 2,0.3 3,0.3 3.7,0.2 5.9,-1.8 5.9,-4.6"
   id="path114" />
</g>
</svg>
